<svg id="visual" viewBox="0 0 900 675" width="900" height="675" xmlns="http://www.w3.org/2000/svg" xmlns:xlink="http://www.w3.org/1999/xlink" version="1.1"><rect x="0" y="0" width="900" height="675" fill="#977f7f"></rect><defs><linearGradient id="grad1_0" x1="25%" y1="0%" x2="100%" y2="100%"><stop offset="23.333333333333336%" stop-color="#fbae3c" stop-opacity="1"></stop><stop offset="76.66666666666666%" stop-color="#fbae3c" stop-opacity="1"></stop></linearGradient></defs><defs><linearGradient id="grad1_1" x1="25%" y1="0%" x2="100%" y2="100%"><stop offset="23.333333333333336%" stop-color="#fbae3c" stop-opacity="1"></stop><stop offset="76.66666666666666%" stop-color="#dc8d6e" stop-opacity="1"></stop></linearGradient></defs><defs><linearGradient id="grad1_2" x1="25%" y1="0%" x2="100%" y2="100%"><stop offset="23.333333333333336%" stop-color="#977f7f" stop-opacity="1"></stop><stop offset="76.66666666666666%" stop-color="#dc8d6e" stop-opacity="1"></stop></linearGradient></defs><defs><linearGradient id="grad2_0" x1="0%" y1="0%" x2="75%" y2="100%"><stop offset="23.333333333333336%" stop-color="#fbae3c" stop-opacity="1"></stop><stop offset="76.66666666666666%" stop-color="#fbae3c" stop-opacity="1"></stop></linearGradient></defs><defs><linearGradient id="grad2_1" x1="0%" y1="0%" x2="75%" y2="100%"><stop offset="23.333333333333336%" stop-color="#dc8d6e" stop-opacity="1"></stop><stop offset="76.66666666666666%" stop-color="#fbae3c" stop-opacity="1"></stop></linearGradient></defs><defs><linearGradient id="grad2_2" x1="0%" y1="0%" x2="75%" y2="100%"><stop offset="23.333333333333336%" stop-color="#dc8d6e" stop-opacity="1"></stop><stop offset="76.66666666666666%" stop-color="#977f7f" stop-opacity="1"></stop></linearGradient></defs><g transform="translate(900, 0)"><path d="M0 478.1C-90 469.3 -179.9 460.4 -239.1 414.1C-298.2 367.7 -326.4 283.8 -361.1 208.5C-395.8 133.2 -437 66.6 -478.1 0L0 0Z" fill="#bd857b"></path><path d="M0 318.8C-60 312.9 -120 307 -159.4 276C-198.8 245.1 -217.6 189.2 -240.8 139C-263.9 88.8 -291.3 44.4 -318.7 0L0 0Z" fill="#f19b59"></path><path d="M0 159.4C-30 156.4 -60 153.5 -79.7 138C-99.4 122.6 -108.8 94.6 -120.4 69.5C-131.9 44.4 -145.7 22.2 -159.4 0L0 0Z" fill="#fbae3c"></path></g><g transform="translate(0, 675)"><path d="M0 -478.1C66.1 -436.1 132.2 -394 207.5 -359.4C282.8 -324.8 367.4 -297.7 414.1 -239.1C460.7 -180.4 469.4 -90.2 478.1 0L0 0Z" fill="#bd857b"></path><path d="M0 -318.7C44.1 -290.7 88.1 -262.7 138.3 -239.6C188.6 -216.5 244.9 -198.5 276 -159.4C307.1 -120.3 312.9 -60.1 318.8 0L0 0Z" fill="#f19b59"></path><path d="M0 -159.4C22 -145.4 44.1 -131.3 69.2 -119.8C94.3 -108.3 122.5 -99.2 138 -79.7C153.6 -60.1 156.5 -30.1 159.4 0L0 0Z" fill="#fbae3c"></path></g></svg>