<svg id="visual" viewBox="0 0 900 675" width="900" height="675" xmlns="http://www.w3.org/2000/svg" xmlns:xlink="http://www.w3.org/1999/xlink" version="1.1"><rect x="0" y="0" width="900" height="675" fill="#001122"></rect><defs><linearGradient id="grad1_0" x1="25%" y1="0%" x2="100%" y2="100%"><stop offset="23.333333333333336%" stop-color="#fbae3c" stop-opacity="1"></stop><stop offset="76.66666666666666%" stop-color="#fbae3c" stop-opacity="1"></stop></linearGradient></defs><defs><linearGradient id="grad1_1" x1="25%" y1="0%" x2="100%" y2="100%"><stop offset="23.333333333333336%" stop-color="#fbae3c" stop-opacity="1"></stop><stop offset="76.66666666666666%" stop-color="#98426a" stop-opacity="1"></stop></linearGradient></defs><defs><linearGradient id="grad1_2" x1="25%" y1="0%" x2="100%" y2="100%"><stop offset="23.333333333333336%" stop-color="#001122" stop-opacity="1"></stop><stop offset="76.66666666666666%" stop-color="#98426a" stop-opacity="1"></stop></linearGradient></defs><defs><linearGradient id="grad2_0" x1="0%" y1="0%" x2="75%" y2="100%"><stop offset="23.333333333333336%" stop-color="#fbae3c" stop-opacity="1"></stop><stop offset="76.66666666666666%" stop-color="#fbae3c" stop-opacity="1"></stop></linearGradient></defs><defs><linearGradient id="grad2_1" x1="0%" y1="0%" x2="75%" y2="100%"><stop offset="23.333333333333336%" stop-color="#98426a" stop-opacity="1"></stop><stop offset="76.66666666666666%" stop-color="#fbae3c" stop-opacity="1"></stop></linearGradient></defs><defs><linearGradient id="grad2_2" x1="0%" y1="0%" x2="75%" y2="100%"><stop offset="23.333333333333336%" stop-color="#98426a" stop-opacity="1"></stop><stop offset="76.66666666666666%" stop-color="#001122" stop-opacity="1"></stop></linearGradient></defs><g transform="translate(900, 0)"><path d="M0 478.1C-99.4 474.8 -198.9 471.4 -239.1 414.1C-279.2 356.8 -260.2 245.5 -290.1 167.5C-320.1 89.5 -399.1 44.7 -478.1 0L0 0Z" fill="#412e55"></path><path d="M0 318.8C-66.3 316.5 -132.6 314.3 -159.4 276C-186.2 237.8 -173.4 163.7 -193.4 111.7C-213.4 59.7 -266.1 29.8 -318.7 0L0 0Z" fill="#e1685b"></path><path d="M0 159.4C-33.1 158.3 -66.3 157.1 -79.7 138C-93.1 118.9 -86.7 81.8 -96.7 55.8C-106.7 29.8 -133 14.9 -159.4 0L0 0Z" fill="#fbae3c"></path></g><g transform="translate(0, 675)"><path d="M0 -478.1C48.5 -405.6 97 -333 174.5 -302.2C252 -271.5 358.6 -282.5 414.1 -239.1C469.5 -195.7 473.8 -97.8 478.1 0L0 0Z" fill="#412e55"></path><path d="M0 -318.7C32.3 -270.4 64.6 -222 116.3 -201.5C168 -181 239.1 -188.3 276 -159.4C313 -130.4 315.9 -65.2 318.8 0L0 0Z" fill="#e1685b"></path><path d="M0 -159.4C16.2 -135.2 32.3 -111 58.2 -100.7C84 -90.5 119.5 -94.2 138 -79.7C156.5 -65.2 157.9 -32.6 159.4 0L0 0Z" fill="#fbae3c"></path></g></svg>