<?xml version="1.0" encoding="utf-8"?><!-- Uploaded to: SVG Repo, www.svgrepo.com, Generator: SVG Repo Mixer Tools -->
<svg width="800px" height="800px" viewBox="0 0 125 125" fill="none" xmlns="http://www.w3.org/2000/svg">
<rect x="14" y="14" width="97" height="97" fill="white"/>
<circle cx="61" cy="64" r="31" fill="white"/>
<circle cx="61" cy="63" r="31" fill="url(#paint0_linear)"/>
<path d="M79.338 37.9051C87.0164 43.5574 92 52.6685 92 62.9457C92 80.0965 78.1208 94 61 94C43.8792 94 30 80.0965 30 62.9457C30 50.6564 37.1261 40.0343 47.4648 35" stroke="#3F3F3F" stroke-width="3" stroke-linecap="round"/>
<path d="M30.1835 56.5C20.121 60.1167 14.8349 64.1696 15.3759 67.4922C16.3215 73.2999 37.391 74.7021 62.4359 70.6241C87.4807 66.5461 107.017 58.5322 106.071 52.7245C105.519 49.3353 98.5451 47.05 87.496 46.875" stroke="#3F3F3F" stroke-width="2" stroke-linecap="round"/>
<path d="M83.1186 66.785C83.3884 66.3031 83.2165 65.6937 82.7346 65.4239L74.8819 61.0268C74.4 60.757 73.7906 60.9289 73.5208 61.4108C73.251 61.8926 73.4229 62.502 73.9048 62.7718L80.885 66.6804L76.9764 73.6606C76.7066 74.1425 76.8785 74.7519 77.3604 75.0217C77.8423 75.2915 78.4517 75.1196 78.7215 74.6377L83.1186 66.785ZM81.9746 65.334C76.0968 66.9921 69.4133 68.4749 62.2752 69.6371L62.5966 71.6111C69.8033 70.4377 76.5611 68.9392 82.5176 67.2589L81.9746 65.334Z" fill="#3F3F3F"/>
<defs>
<linearGradient id="paint0_linear" x1="61" y1="51.5" x2="21" y2="112.5" gradientUnits="userSpaceOnUse">
<stop stop-color="#63EDE4" stop-opacity="0"/>
<stop offset="1" stop-color="#63EDE4"/>
</linearGradient>
</defs>
</svg>