<svg id="visual" viewBox="0 0 900 675" width="900" height="675" xmlns="http://www.w3.org/2000/svg" xmlns:xlink="http://www.w3.org/1999/xlink" version="1.1"><rect x="0" y="0" width="900" height="675" fill="#a06c02"></rect><path d="M0 444L30 442.5C60 441 120 438 180 446C240 454 300 473 360 476.2C420 479.3 480 466.7 540 448.7C600 430.7 660 407.3 720 404.5C780 401.7 840 419.3 870 428.2L900 437L900 676L870 676C840 676 780 676 720 676C660 676 600 676 540 676C480 676 420 676 360 676C300 676 240 676 180 676C120 676 60 676 30 676L0 676Z" fill="#b22815" stroke-linecap="round" stroke-linejoin="miter"></path></svg>